# xmcd
#
# Track frame offsets:
#   150
#   21699
#   37526
#   60407
#   77993
#   96404
#   116765
#   138534
#   159376
#   177476
#   194790
#   214494
#   232202
#   251254
#
# Disc length: 3626 seconds
#
# Revision: 0
# Processed by: cddbd v1.5.2PL0 Copyright (c) Steve Scherf et al.
# Submitted via: GXTranscoder 2.0.1939
#
DISCID=d00e280e
DTITLE=Billy Idol - Starboulevard
DYEAR=1900
DGENRE=Pop
TTITLE0=Rebel Yell
TTITLE1=Hot In The City
TTITLE2=Blue Highway
TTITLE3=Dead On Arrival
TTITLE4=Nobody's Business
TTITLE5=Shooting Stars
TTITLE6=Don't You
TTITLE7=Love Unchained
TTITLE8=L.A. Woman
TTITLE9=To Be A Lover
TTITLE10=Mark Of Caine
TTITLE11=New Future Weapon
TTITLE12=John Wayne
TTITLE13=Flesh For Fantasy
EXTD=
EXTT0=
EXTT1=
EXTT2=
EXTT3=
EXTT4=
EXTT5=
EXTT6=
EXTT7=
EXTT8=
EXTT9=
EXTT10=
EXTT11=
EXTT12=
EXTT13=
PLAYORDER=
